<?xml version="1.0" standalone="no"?>
<!DOCTYPE svg PUBLIC "-//W3C//DTD SVG 20010904//EN"
 "http://www.w3.org/TR/2001/REC-SVG-20010904/DTD/svg10.dtd">
<svg version="1.0" xmlns="http://www.w3.org/2000/svg"
 width="325.000000pt" height="155.000000pt" viewBox="0 0 325.000000 155.000000"
 preserveAspectRatio="xMidYMid meet">

<g transform="translate(0.000000,155.000000) scale(0.100000,-0.100000)"
fill="#000000" stroke="none">
<path d="M0 1459 c0 -69 3 -88 12 -83 10 6 10 4 0 -8 -19 -24 -17 -668 3 -668
7 0 15 8 17 18 3 16 4 16 10 0 6 -13 1 -19 -17 -24 -20 -5 -25 -13 -25 -36 0
-26 3 -29 23 -23 33 10 42 22 29 38 -6 7 -8 18 -3 23 11 12 -7 76 -19 69 -6
-4 -11 -16 -11 -28 -1 -14 -3 -16 -6 -6 -2 8 1 29 7 44 9 23 13 26 20 15 8
-13 10 -12 10 3 0 20 16 23 23 5 3 -7 6 -3 6 8 1 16 12 26 39 37 31 13 122 87
106 87 -3 0 11 16 31 37 45 47 62 101 48 154 -6 21 -9 39 -8 39 1 0 14 -11 29
-25 15 -14 24 -25 20 -25 -3 0 -1 -7 7 -16 10 -13 10 -17 -2 -25 -12 -7 -11
-9 2 -9 12 0 15 -9 13 -37 -2 -21 -3 -44 -3 -52 -1 -7 -7 -11 -16 -7 -10 4
-15 -1 -15 -14 0 -12 -7 -20 -17 -21 -12 0 -13 -2 -5 -6 7 -3 22 3 33 13 18
16 19 16 13 1 -3 -9 -2 -17 4 -17 5 0 13 7 16 16 3 8 11 12 16 9 6 -4 10 -3 9
2 -4 15 13 63 22 63 4 0 6 9 4 20 -2 11 0 18 6 15 5 -4 9 -1 9 4 0 6 7 11 15
11 8 0 15 -4 15 -10 0 -5 -7 -10 -15 -10 -12 0 -15 -9 -13 -35 2 -39 14 -47
21 -12 2 12 5 -24 6 -80 1 -97 0 -102 -19 -98 -11 2 -18 0 -15 -6 4 -5 2 -9
-4 -9 -6 0 -8 -7 -4 -17 5 -14 8 -13 15 6 8 24 28 20 28 -5 0 -8 -4 -12 -10
-9 -6 3 -10 1 -10 -4 0 -6 5 -11 10 -11 6 0 10 -8 10 -17 0 -15 -2 -16 -10 -3
-8 13 -10 12 -10 -2 0 -10 -5 -18 -11 -18 -6 0 -8 9 -4 20 3 11 2 20 -4 20 -5
0 -13 -9 -16 -21 -6 -16 -10 -18 -18 -9 -9 10 -9 14 1 17 6 3 9 9 6 15 -3 5
-15 -4 -25 -21 -23 -38 -24 -51 -3 -51 8 0 13 -4 10 -9 -3 -4 7 -6 22 -5 15 2
21 1 14 -2 -10 -5 -9 -9 4 -19 24 -17 25 -41 3 -42 -12 -1 -19 5 -19 15 0 15
-2 15 -10 2 -5 -8 -10 -10 -10 -4 0 7 -8 14 -17 17 -10 2 -27 8 -37 13 -15 6
-17 4 -11 -7 8 -12 6 -12 -9 0 -9 8 -16 10 -15 5 4 -16 -13 -44 -22 -38 -15 9
-10 -3 8 -17 9 -8 14 -9 10 -2 -5 8 4 10 28 8 22 -2 35 1 35 8 0 7 4 6 9 -3
13 -19 3 -34 -13 -21 -7 6 -16 8 -20 4 -21 -21 -106 0 -106 26 0 11 -4 9 -14
-5 -8 -10 -10 -20 -5 -22 5 -2 9 -8 9 -13 0 -6 -4 -7 -10 -4 -5 3 -10 -1 -10
-9 0 -9 8 -16 18 -16 14 0 15 -2 2 -10 -11 -7 -12 -10 -2 -10 7 0 20 -7 28
-15 15 -15 15 -16 -8 -19 -6 0 -12 -7 -14 -14 -1 -7 0 -8 3 -2 2 5 9 7 14 4
17 -10 -10 -32 -32 -27 -14 4 -17 8 -9 13 8 5 2 10 -14 14 -14 3 -26 11 -26
16 0 6 -5 10 -10 10 -7 0 -6 -8 1 -22 7 -13 12 -25 12 -28 -1 -3 3 -4 9 -2 5
1 7 -2 4 -7 -4 -5 0 -12 6 -15 7 -3 1 -3 -15 1 -22 4 -26 2 -21 -11 6 -15 2
-17 -31 -16 -3 0 -21 -6 -40 -14 -19 -8 -37 -11 -40 -6 -7 11 12 23 24 16 5
-4 11 -1 13 6 2 6 15 13 28 15 30 4 64 33 40 33 -13 0 -13 1 0 10 12 8 12 10
-3 16 -9 3 -17 12 -17 20 0 8 -5 14 -11 14 -5 0 -7 5 -4 10 4 6 11 8 16 5 5
-4 9 0 9 9 0 21 -23 25 -38 7 -11 -14 -13 -11 -9 18 l4 35 -18 -23 c-22 -26
-25 -46 -7 -35 9 5 8 2 -1 -10 -10 -12 -16 -14 -21 -5 -4 6 -12 9 -16 6 -5 -3
-10 6 -10 19 -2 25 11 33 18 12 3 -7 7 -5 11 6 4 9 3 15 -2 11 -5 -3 -12 1
-14 7 -4 10 -8 9 -16 -2 -14 -19 -14 -70 -1 -70 6 0 10 -5 10 -11 0 -5 -4 -7
-10 -4 -7 4 -10 -82 -10 -250 l0 -256 100 2 c104 1 112 6 86 47 -4 7 -5 16 -2
19 3 4 -11 14 -32 23 -22 10 -39 25 -39 34 0 22 10 20 25 -4 7 -12 18 -18 24
-14 6 4 8 3 5 -2 -3 -6 8 -16 24 -23 16 -7 27 -17 23 -22 -3 -5 -11 -6 -17 -3
-7 4 -8 3 -4 -2 12 -12 30 -12 39 1 7 8 13 -24 9 -47 0 -4 82 -7 183 -8 167 0
185 2 189 18 4 15 5 15 6 0 1 -15 38 -17 476 -18 450 -1 474 0 469 17 -5 17
-5 17 9 1 16 -20 38 -23 54 -7 8 8 13 8 17 0 4 -6 25 -11 47 -11 33 0 39 3 39
21 0 16 -4 19 -21 14 -14 -5 -25 -2 -30 6 -7 11 -9 11 -9 -3 0 -14 -4 -14 -25
-5 -14 7 -25 21 -26 32 -2 28 -4 37 -14 59 -8 19 -9 19 -16 0 -4 -10 -8 -33
-8 -50 -1 -31 -31 -59 -31 -29 0 19 -14 19 -30 0 -16 -19 -54 -19 -70 0 -7 9
-12 55 -13 125 -1 68 -5 110 -12 110 -5 0 -3 5 5 10 9 6 10 10 3 10 -6 0 -11
8 -11 17 0 10 -3 27 -7 38 -5 16 -5 17 4 5 13 -18 13 -10 1 50 -8 42 -6 53 19
90 9 13 12 12 25 -5 14 -19 15 -19 22 -1 4 10 2 21 -5 26 -9 5 -4 19 18 52 36
53 56 72 70 64 5 -4 16 0 24 9 13 13 16 13 21 -1 3 -9 6 -36 6 -60 0 -41 -2
-44 -26 -44 -20 0 -25 -4 -20 -16 3 -9 6 -20 6 -26 0 -6 7 -7 16 -4 14 5 15
-7 10 -110 -3 -63 -8 -120 -12 -125 -3 -6 -3 -31 1 -56 10 -65 26 -41 26 39 0
35 4 70 9 78 8 12 10 10 10 -7 0 -14 6 -23 15 -23 8 0 15 -5 15 -11 0 -5 -4
-7 -10 -4 -6 3 -7 -1 -4 -9 3 -9 10 -14 14 -11 4 3 10 -2 14 -10 3 -8 1 -15
-4 -15 -6 0 -10 -4 -10 -10 0 -21 29 -9 59 25 35 41 41 88 14 104 -10 6 -13
11 -6 11 7 0 10 7 7 15 -8 20 -78 13 -104 -10 -20 -18 -21 -18 -14 36 6 52 33
96 49 81 4 -4 3 3 -4 15 -8 16 -8 22 2 26 6 2 -1 8 -17 12 -29 8 -29 8 -22 69
4 34 7 75 7 91 -1 20 2 26 8 17 6 -11 20 -11 67 -3 35 7 62 7 67 2 15 -15 -2
-31 -34 -31 -29 0 -38 -13 -17 -26 7 -5 8 -3 3 7 -5 8 9 1 31 -16 62 -47 73
-58 68 -67 -3 -4 0 -8 5 -8 6 0 11 21 11 48 0 34 3 43 10 32 6 -9 10 -10 10
-3 0 6 -4 15 -10 18 -5 3 -10 22 -10 41 0 21 4 33 10 29 6 -3 10 -2 10 4 0 5
3 16 6 25 3 9 1 16 -5 16 -6 0 -11 -7 -11 -15 0 -11 -12 -15 -46 -15 -27 0
-43 -4 -39 -10 3 -6 1 -10 -4 -10 -6 0 -11 5 -11 10 0 6 -7 10 -16 10 -8 0
-13 4 -9 9 3 5 1 12 -5 16 -5 3 -10 1 -10 -5 0 -23 -24 -38 -47 -29 -15 6 -23
5 -23 -2 0 -8 -5 -7 -15 1 -12 10 -15 10 -15 0 0 -10 -3 -10 -14 -1 -11 9 -15
9 -19 -1 -3 -7 -6 -8 -6 -3 -1 13 -180 13 -189 0 -4 -6 -13 -10 -19 -11 -7 -1
-17 -2 -22 -2 -4 -1 -7 -34 -6 -72 1 -39 -2 -73 -6 -76 -17 -10 -9 -25 9 -20
10 4 26 0 36 -7 16 -11 17 -21 11 -53 -5 -21 -9 -45 -9 -53 -1 -10 -16 -15
-49 -16 -26 -2 -51 -6 -55 -10 -4 -4 12 -4 36 0 28 4 42 3 42 -4 0 -6 -4 -11
-9 -11 -5 0 -22 -5 -38 -11 -33 -13 -140 -22 -129 -11 4 4 12 8 17 8 5 1 12 2
17 3 10 3 -69 41 -87 42 -9 1 0 5 19 9 19 4 60 15 90 24 30 9 76 22 103 29 26
6 47 15 47 19 0 12 -7 11 -131 -21 -132 -33 -253 -61 -265 -61 -5 0 -9 27 -9
61 l-1 60 59 -2 c42 -2 61 2 68 12 6 10 9 10 9 2 0 -10 26 -13 95 -13 86 0
113 8 85 25 -18 11 -10 26 10 20 13 -4 20 -2 20 7 0 17 -20 47 -20 31 0 -7 -5
-13 -10 -13 -7 0 -10 22 -8 58 2 46 -1 60 -16 75 -18 16 -17 17 32 17 28 0 57
3 66 6 22 8 20 27 -1 20 -10 -3 -52 -8 -93 -11 -41 -3 -84 -8 -94 -11 -17 -6
-18 -3 -12 32 14 76 19 154 10 154 -5 0 -24 -4 -42 -10 -28 -7 -32 -7 -23 4
13 16 98 39 111 31 5 -3 11 -1 15 5 9 15 46 12 66 -6 19 -17 79 -11 79 7 0 6
5 7 10 4 6 -3 10 -1 10 4 0 14 -17 14 -25 1 -8 -13 -75 -13 -75 -1 0 6 17 11
38 13 31 3 37 7 39 28 2 17 0 20 -5 10 -4 -9 -14 -15 -22 -15 -8 1 -21 -3 -29
-9 -9 -7 -17 -6 -26 7 -16 22 -22 21 -28 -3 -5 -20 -27 -28 -27 -10 0 6 5 10
12 10 6 0 8 3 4 7 -4 5 -13 1 -19 -8 -25 -33 -63 -28 -81 11 -3 8 -4 3 -3 -12
3 -23 -1 -29 -26 -38 -17 -5 -32 -8 -34 -6 -16 15 14 148 33 146 5 -1 14 -18
20 -38 9 -26 12 -31 13 -15 1 12 7 26 15 30 8 4 15 17 17 28 3 11 14 21 26 23
18 3 21 -1 18 -19 -2 -12 0 -29 5 -38 9 -15 9 -15 10 0 0 9 7 22 16 30 14 12
14 14 -2 26 -17 12 -17 13 3 13 19 0 21 -6 21 -51 1 -28 3 -54 6 -57 3 -3 6
25 6 62 l0 68 -36 -7 c-22 -4 -34 -3 -30 3 10 17 95 28 89 11 -1 -3 5 -6 13
-6 11 0 11 4 -3 20 -18 19 -49 19 -110 1 -17 -5 -23 -2 -23 10 0 10 -5 13 -17
9 -11 -4 -12 -8 -5 -11 7 -2 12 -8 12 -14 0 -6 -7 -8 -15 -4 -8 3 -15 2 -15
-2 0 -4 -24 -16 -52 -27 -29 -11 -57 -21 -62 -24 -5 -2 -6 1 -2 8 4 6 4 11 1
11 -9 0 -31 -23 -32 -35 -1 -5 -7 -11 -15 -13 -9 -2 -8 0 2 7 8 6 10 11 4 11
-6 0 -10 10 -8 23 1 12 3 26 3 30 1 5 5 5 11 2 5 -3 10 1 10 9 0 22 17 20 24
-1 4 -15 5 -15 4 2 0 11 0 25 1 30 1 15 41 16 41 2 0 -7 7 1 15 17 19 37 9 53
-16 25 -10 -12 -19 -19 -19 -15 0 4 -12 -2 -26 -13 -32 -25 -53 -17 -28 10 9
10 21 19 26 19 4 0 22 15 38 33 16 17 30 26 30 20 0 -7 5 -13 10 -13 6 0 10 8
8 17 -2 11 4 18 15 18 10 0 21 5 25 12 4 6 16 11 27 10 16 -2 20 4 20 26 -1
35 9 34 37 -3 16 -22 24 -27 30 -18 4 7 5 0 2 -17 -5 -26 -3 -31 15 -31 12 0
21 4 21 8 0 4 6 7 12 5 18 -3 40 -26 34 -35 -2 -4 -1 -14 5 -22 5 -10 9 35 9
123 l0 137 -232 0 -233 0 3 -236 3 -237 -25 5 c-14 3 -26 1 -26 -4 0 -5 -8 -5
-17 0 -10 5 -40 7 -68 6 -63 -4 -87 15 -83 65 2 21 -2 36 -10 38 -7 3 -10 -1
-6 -11 3 -9 2 -16 -3 -16 -5 0 -10 14 -11 32 -4 51 -12 46 -12 -8 0 -28 -6
-56 -12 -63 -11 -11 -10 -14 0 -18 10 -4 10 -8 0 -21 -12 -14 -10 -14 10 -3
36 19 51 -1 28 -38 -6 -10 -5 -12 2 -7 14 9 6 -18 -17 -54 -10 -15 -11 -21 -3
-17 8 6 12 1 13 -15 1 -21 2 -20 14 7 10 21 14 24 15 11 0 -10 -16 -33 -35
-50 -39 -36 -47 -56 -13 -32 37 26 48 21 37 -16 -14 -51 -12 -58 24 -59 l32
-2 -30 -4 c-16 -2 -43 -9 -58 -15 -23 -9 -26 -13 -14 -20 12 -6 13 -13 4 -33
-7 -14 -15 -25 -19 -25 -5 0 -8 -5 -8 -11 0 -5 4 -8 10 -4 12 7 17 -110 8
-200 -4 -38 -5 -71 -3 -73 8 -9 265 43 265 54 0 6 -15 16 -32 22 l-33 11 32
-5 32 -5 4 93 3 93 2 -116 2 -117 -67 -11 c-251 -43 -243 -41 -243 -72 0 -32
-14 -36 -44 -14 -11 8 -31 14 -45 14 l-26 -2 24 -4 c13 -3 31 -11 38 -19 8 -8
26 -14 41 -13 43 1 129 16 103 18 -33 1 -24 7 24 15 29 5 36 4 25 -3 -22 -15
-3 -13 33 3 47 21 97 36 118 36 18 0 19 -10 17 -162 -1 -90 -4 -131 -5 -92
l-4 71 -71 2 c-77 2 -89 9 -86 52 2 24 4 25 70 26 57 1 68 -1 69 -15 0 -14 2
-13 8 3 7 18 3 20 -48 25 -31 3 -87 1 -126 -4 -38 -4 -96 -7 -128 -7 -31 1
-65 -2 -74 -7 -11 -7 -1 -9 33 -6 41 2 45 1 27 -8 -20 -9 -23 -19 -23 -65 l0
-53 -40 26 c-22 15 -40 31 -40 36 0 5 -4 6 -10 3 -6 -3 -7 1 -4 10 4 10 14 14
28 10 18 -5 17 -3 -6 17 -16 13 -28 28 -28 33 0 6 4 4 9 -3 6 -10 10 -10 20 2
10 12 7 17 -16 30 -15 8 -22 15 -15 16 11 0 11 2 0 13 -19 19 -12 127 9 127 9
0 13 6 9 15 -4 11 2 15 23 15 24 0 29 5 41 48 8 26 14 80 14 120 0 51 4 72 13
72 7 0 13 11 13 24 0 13 13 53 30 89 30 68 38 111 20 122 -5 3 -7 12 -3 20 3
8 0 15 -7 15 -6 0 -8 -5 -5 -10 9 -15 -46 -32 -82 -25 -31 6 -55 23 -30 22 6
0 23 1 37 2 l25 3 -25 8 c-24 8 -23 8 7 9 25 1 31 -2 27 -14 -4 -8 -1 -15 4
-15 18 0 24 20 12 35 -10 12 -9 15 4 15 11 0 14 -4 10 -12 -5 -9 -2 -9 9 1 42
34 7 50 -103 47 -30 -1 -64 -5 -75 -9 -17 -6 -21 -3 -22 15 -2 18 0 20 7 8 6
-10 10 -11 10 -3 0 7 -8 22 -17 33 -10 11 -17 23 -15 27 2 3 -7 11 -20 17 -23
11 -39 66 -20 66 5 0 7 -11 4 -25 -3 -20 1 -27 22 -35 14 -5 25 -13 24 -17 -2
-5 6 -17 17 -28 l20 -20 2 53 c1 29 -2 50 -7 47 -5 -3 -12 -1 -15 5 -4 6 -1 9
6 8 6 -2 14 3 17 11 3 8 0 11 -7 7 -7 -5 -9 -1 -5 8 4 10 1 16 -9 16 -8 0 -17
7 -21 15 -5 13 -3 13 18 0 22 -15 23 -14 23 19 0 20 -5 34 -11 33 -6 -1 -12
15 -14 36 -3 30 -7 37 -25 38 -21 0 -21 1 3 11 57 25 60 23 61 -45 l1 -62 13
65 c7 36 15 89 19 118 l7 52 -55 0 c-48 0 -55 -2 -50 -17 5 -17 5 -17 -6 0
-10 15 -31 17 -205 17 l-195 0 0 -91z m450 61 c0 -5 -5 -10 -11 -10 -5 0 -7 5
-4 10 3 6 8 10 11 10 2 0 4 -4 4 -10z m17 -32 c-3 -8 -6 -5 -6 6 -1 11 2 17 5
13 3 -3 4 -12 1 -19z m-340 -7 c0 -11 -5 -18 -9 -15 -4 3 -5 11 -1 19 7 21 12
19 10 -4z m-42 -31 c3 -6 -1 -7 -9 -4 -18 7 -21 14 -7 14 6 0 13 -4 16 -10z
m79 -15 c4 -14 11 -25 17 -25 6 0 7 -5 4 -10 -4 -6 -11 -8 -16 -5 -5 4 -9 1
-9 -4 0 -16 21 -13 41 5 16 15 17 14 12 -4 -3 -14 2 -21 19 -25 23 -6 23 -6 3
10 -18 14 -18 15 -2 9 10 -3 22 -6 27 -6 5 0 8 -9 7 -20 -1 -21 -12 -26 -22
-10 -3 6 -15 10 -26 10 -11 0 -17 -5 -14 -10 3 -6 -1 -17 -9 -26 -14 -13 -16
-13 -16 -1 0 8 -7 18 -16 21 -8 3 -13 2 -10 -2 2 -4 -10 -7 -27 -6 -17 0 -33
6 -35 13 -2 6 -8 9 -13 5 -5 -3 -9 -1 -9 5 0 16 40 35 41 19 0 -10 2 -10 6 0
2 6 11 12 19 12 12 0 12 3 2 14 -7 8 -17 13 -22 13 -6 -1 -12 6 -14 16 -2 9 1
17 7 17 6 0 8 -6 5 -13 -2 -7 3 -13 15 -14 14 -1 17 3 14 18 -3 10 -1 19 5 19
5 0 13 -11 16 -25z m179 9 c-5 -13 -2 -15 18 -9 20 7 22 6 12 -6 -10 -12 -41
-16 -72 -10 -7 2 32 41 40 41 5 0 6 -7 2 -16z m-260 -41 c-3 -10 -10 -23 -14
-28 -13 -17 -5 -43 21 -70 18 -19 20 -24 7 -19 -9 3 -17 10 -17 16 0 5 -5 6
-12 2 -7 -4 -8 -3 -4 4 4 7 1 12 -9 12 -28 0 -45 23 -30 43 16 22 26 22 19 0
-3 -10 4 -1 16 20 22 39 34 49 23 20z m-23 -3 c0 -5 -8 -10 -17 -10 -15 0 -16
2 -3 10 19 12 20 12 20 0z m290 -9 c0 -5 -7 -11 -15 -15 -15 -5 -20 5 -8 17 9
10 23 9 23 -2z m72 -36 c5 -40 -4 -45 -26 -13 -11 16 -13 25 -4 35 17 21 26
15 30 -22z m-102 1 c6 -8 17 -13 24 -10 16 6 27 -18 16 -36 -6 -10 -14 -7 -33
13 -13 15 -30 27 -36 27 -7 0 -9 5 -6 10 9 14 21 12 35 -4z m664 -75 l-28 -26
24 28 c13 15 20 27 16 27 -4 0 -4 5 0 12 6 9 9 9 12 -1 2 -7 -8 -25 -24 -40z
m-650 3 c5 -14 4 -15 -9 -4 -17 14 -19 20 -6 20 5 0 12 -7 15 -16z m-103 -21
c28 -17 40 -43 18 -43 -5 0 -7 -5 -3 -12 8 -12 7 -12 -64 33 -34 22 -39 28
-25 32 33 9 45 7 74 -10z m190 -10 c13 -16 12 -17 -3 -4 -10 7 -18 15 -18 17
0 8 8 3 21 -13z m809 -71 c0 -7 -89 -42 -106 -42 -12 1 47 33 64 36 8 1 16 5
20 8 8 9 22 7 22 -2z m-249 -53 c-9 -22 -10 -22 -10 -3 -1 11 2 24 6 27 12 12
14 0 4 -24z m95 -103 c1 -45 -2 -56 -12 -52 -8 3 -14 1 -14 -4 0 -6 -3 -10 -8
-10 -4 0 -6 18 -4 40 2 22 8 40 12 40 4 0 5 12 2 26 -4 20 -1 25 9 22 10 -3
14 -23 15 -62z m-211 19 c0 -20 -7 -21 -57 -12 -10 2 -21 7 -25 12 -5 4 -2 5
5 1 6 -4 12 -2 12 4 0 6 5 8 10 5 6 -3 10 -1 10 5 0 6 10 10 23 8 14 -2 22
-10 22 -23z m65 5 c0 -17 -2 -19 -14 -8 -10 9 -11 15 -2 20 16 11 16 10 16
-12z m84 -7 c4 -9 1 -20 -6 -25 -9 -5 -9 -8 -1 -8 6 0 11 -13 11 -30 -1 -16
-4 -27 -9 -25 -4 3 -9 -1 -12 -7 -9 -26 -13 -2 -9 55 4 57 14 72 26 40z m-230
-32 c3 -5 -3 -11 -15 -14 -16 -4 -18 -3 -8 9 13 16 16 17 23 5z m142 -9 c-7
-11 -82 -10 -92 1 -4 4 11 6 34 5 23 -1 45 2 49 5 9 10 16 0 9 -11z m31 -64
c-2 -13 -4 -5 -4 17 -1 22 1 32 4 23 2 -10 2 -28 0 -40z m-749 2 c-3 -9 -9 -8
-21 4 -9 10 -14 22 -11 28 8 13 38 -16 32 -32z m719 18 c-3 -8 -6 -5 -6 6 -1
11 2 17 5 13 3 -3 4 -12 1 -19z m-358 -7 c21 -14 -23 -24 -62 -15 l-32 8 35 7
c19 3 37 7 40 8 3 0 11 -3 19 -8z m554 -25 c11 4 14 -9 16 -58 1 -34 7 -65 12
-69 26 -16 -4 -36 -58 -38 -20 -1 -22 2 -12 26 6 15 9 48 8 73 -2 25 1 51 4
57 4 7 3 14 -3 18 -6 4 -7 11 -4 17 5 7 10 3 15 -10 5 -13 14 -19 22 -16z
m-947 1 c4 -4 3 -7 -2 -8 -46 -4 -59 -8 -62 -17 -2 -7 -8 -12 -14 -12 -6 0 -6
6 2 15 6 8 9 18 7 22 -7 11 59 11 69 0z m734 3 c0 -5 -17 -10 -37 -10 -28 0
-34 3 -23 10 20 13 60 13 60 0z m270 0 c0 -5 -4 -10 -9 -10 -6 0 -13 5 -16 10
-3 6 1 10 9 10 9 0 16 -4 16 -10z m-357 -17 c-7 -2 -19 -2 -25 0 -7 3 -2 5 12
5 14 0 19 -2 13 -5z m239 -76 c4 -68 3 -72 -28 -81 -20 -6 -21 -4 -17 41 8 93
13 112 28 107 9 -4 15 -27 17 -67z m-997 43 c-3 -5 -13 -10 -21 -10 -8 0 -12
5 -9 10 3 6 13 10 21 10 8 0 12 -4 9 -10z m920 -42 c-1 -13 2 -35 6 -50 6 -21
4 -26 -7 -21 -10 4 -12 0 -8 -11 4 -9 1 -16 -6 -16 -8 0 -10 8 -6 23 3 12 6
39 6 60 0 20 4 37 8 37 5 0 8 -10 7 -22z m-58 -20 c-3 -7 -5 -2 -5 12 0 14 2
19 5 13 2 -7 2 -19 0 -25z m-17 -8 c0 -5 -18 -10 -41 -10 -22 0 -49 -5 -61
-11 -11 -6 -22 -8 -26 -5 -11 12 10 21 61 27 29 3 55 7 60 8 4 0 7 -3 7 -9z
m17 -77 c-3 -10 -5 -2 -5 17 0 19 2 27 5 18 2 -10 2 -26 0 -35z m253 15 c0 15
66 16 76 1 4 -7 -3 -10 -22 -7 -17 2 -29 -2 -32 -11 -3 -10 0 -12 12 -8 16 6
17 1 12 -60 -8 -102 -8 -103 -31 -103 -16 0 -17 2 -5 10 9 6 10 10 3 10 -8 0
-13 25 -15 77 l-3 78 -45 -3 c-37 -2 -42 0 -27 9 10 6 27 9 38 6 11 -3 19 0
19 6 0 7 5 5 10 -3 6 -10 10 -11 10 -2z m-100 -18 c0 -5 -10 -10 -22 -10 -19
0 -20 2 -8 10 19 13 30 13 30 0z m-680 -25 c14 -19 14 -19 -2 -6 -10 7 -18 18
-18 24 0 6 1 8 3 6 1 -2 9 -13 17 -24z m67 -7 c-3 -8 -6 -5 -6 6 -1 11 2 17 5
13 3 -3 4 -12 1 -19z m674 12 c-11 -6 -14 -24 -12 -64 2 -45 -1 -56 -13 -56
-9 0 -16 -7 -16 -15 0 -8 -6 -15 -13 -15 -10 0 -11 13 -6 58 4 31 8 66 8 77 1
15 9 21 34 22 22 2 28 0 18 -7z m139 0 c0 -5 -2 -10 -4 -10 -3 0 -8 5 -11 10
-3 6 -1 10 4 10 6 0 11 -4 11 -10z m345 0 c3 -5 2 -10 -4 -10 -5 0 -13 5 -16
10 -3 6 -2 10 4 10 5 0 13 -4 16 -10z m-75 -20 c0 -31 -1 -35 -11 -32 -5 1 -8
-2 -6 -7 1 -4 -13 -27 -32 -51 -25 -31 -36 -39 -42 -29 -5 8 -1 21 9 32 9 11
17 22 17 26 0 3 6 5 13 5 7 -1 11 0 8 3 -3 3 2 12 10 20 19 20 8 36 -16 23
-26 -14 -30 -13 -30 10 0 17 7 20 40 20 33 0 40 -3 40 -20z m37 -1 c2 -16 -1
-19 -9 -11 -5 5 -7 15 -4 21 10 15 12 14 13 -10z m-538 -37 c1 -27 -2 -41 -8
-38 -5 4 -12 2 -16 -4 -3 -5 1 -10 10 -10 9 0 13 -5 10 -10 -4 -6 -10 -8 -15
-5 -5 3 -11 -3 -13 -12 -3 -10 -5 14 -6 54 -1 64 1 72 17 70 15 -1 19 -11 21
-45z m-73 -8 c1 -19 -2 -34 -7 -34 -5 0 -9 19 -9 42 0 49 14 43 16 -8z m853
-10 c14 -12 -19 -1 -35 12 -18 14 -18 14 6 3 14 -6 27 -13 29 -15z m-582 -54
c3 -20 -11 -27 -21 -11 -7 11 4 44 12 36 3 -3 7 -14 9 -25z m-860 -17 c-16
-17 -47 -11 -47 8 0 6 7 9 15 5 8 -3 21 1 27 8 8 8 15 10 17 4 2 -5 -4 -17
-12 -25z m33 -36 c-18 -48 -52 -97 -36 -53 4 12 1 23 -6 29 -9 6 -8 7 5 3 10
-3 16 -2 13 2 -10 16 16 81 30 75 11 -4 9 -15 -6 -56z m1025 14 c-3 -12 -11
-21 -16 -21 -6 0 -7 6 -2 13 4 6 8 15 9 20 1 4 2 10 3 14 0 3 4 4 7 0 3 -3 3
-15 -1 -26z m-983 -3 c-7 -7 -12 -8 -12 -2 0 6 3 14 7 17 3 4 9 5 12 2 2 -3
-1 -11 -7 -17z m-102 -10 c0 -6 -6 -5 -15 2 -8 7 -15 14 -15 16 0 2 7 1 15 -2
8 -4 15 -11 15 -16z m107 -30 c-3 -8 -6 -5 -6 6 -1 11 2 17 5 13 3 -3 4 -12 1
-19z m380 -4 c-3 -3 -12 -4 -19 -1 -8 3 -5 6 6 6 11 1 17 -2 13 -5z m-519 -18
c14 -2 29 -14 38 -32 l15 -29 -24 23 c-26 25 -44 16 -33 -15 4 -8 1 -22 -6
-30 -9 -12 -14 -9 -25 18 -16 38 -16 42 -3 34 16 -10 12 11 -5 25 -13 11 -14
10 -9 -5 6 -14 4 -16 -6 -10 -9 5 -11 4 -6 -3 4 -7 3 -12 -2 -12 -17 0 -21 12
-9 32 8 13 18 17 32 12 11 -3 30 -7 43 -8z m109 -18 c-3 -8 -6 -5 -6 6 -1 11
2 17 5 13 3 -3 4 -12 1 -19z m-337 -16 c0 -4 -9 -8 -19 -8 -11 0 -17 4 -15 8
3 4 12 8 20 8 8 0 14 -4 14 -8z m290 -42 c0 -5 -2 -10 -4 -10 -3 0 -8 5 -11
10 -3 6 -1 10 4 10 6 0 11 -4 11 -10z m690 -5 c-20 -19 -80 -32 -80 -16 0 6 9
11 20 11 11 0 20 5 20 10 0 6 12 10 27 10 24 0 26 -2 13 -15z m-914 -4 c-3 -5
-17 -11 -31 -13 -20 -4 -23 -3 -14 8 12 15 54 20 45 5z m109 -21 c8 -13 -15
-13 -35 0 -12 8 -11 10 7 10 12 0 25 -4 28 -10z m874 -20 c-8 -4 -34 -4 -59 0
-44 6 -44 7 -15 14 17 4 35 9 40 11 6 1 19 -2 29 -8 15 -8 16 -11 5 -17z m102
-11 c-77 -20 -100 -17 -67 7 13 9 43 14 80 13 l61 -1 -74 -19z m409 17 c0 -3
-4 -8 -10 -11 -5 -3 -10 -1 -10 4 0 6 5 11 10 11 6 0 10 -2 10 -4z m-1327 -24
c-4 -8 -10 -9 -17 -3 -6 4 -29 7 -50 6 -22 -2 -34 0 -27 4 21 13 99 7 94 -7z
m35 -7 c1 -14 -2 -25 -6 -25 -7 0 -8 31 -3 48 3 8 7 -2 9 -23z m53 16 c-8 -5
-10 -14 -6 -22 6 -11 5 -11 -5 -2 -14 12 -6 33 13 33 8 0 7 -3 -2 -9z m922 -8
c-7 -2 -19 -2 -25 0 -7 3 -2 5 12 5 14 0 19 -2 13 -5z m-1033 -31 c0 -12 -3
-12 -15 -2 -8 7 -15 13 -15 15 0 1 7 2 15 2 8 0 15 -7 15 -15z m808 11 c-16
-2 -40 -2 -55 0 -16 2 -3 4 27 4 30 0 43 -2 28 -4z m-962 -34 c19 -22 19 -22
-3 -10 -13 6 -23 16 -23 21 0 15 5 12 26 -11z m82 -4 c2 -1 -3 -5 -11 -8 -7
-3 -19 4 -26 15 -11 18 -10 18 11 7 13 -6 24 -13 26 -14z m922 17 c0 -9 -67
-8 -77 1 -3 4 12 7 35 7 23 0 42 -4 42 -8z m-1045 -11 c3 -5 1 -12 -5 -16 -5
-3 -10 1 -10 9 0 18 6 21 15 7z m1191 -1 c-18 -6 -66 -2 -66 6 0 1 19 2 43 2
28 0 36 -3 23 -8z m-286 -14 c0 -11 -19 -15 -25 -6 -3 5 1 10 9 10 9 0 16 -2
16 -4z m-588 -78 c-7 -7 -12 -8 -12 -2 0 14 12 26 19 19 2 -3 -1 -11 -7 -17z
m-317 -27 c3 -5 1 -12 -5 -16 -6 -4 -8 -11 -5 -16 4 -5 1 -9 -5 -9 -7 0 -10 7
-6 15 5 14 -5 20 -27 16 -5 -1 -6 3 -2 9 8 13 42 13 50 1z m-21 -80 c3 -5 -2
-15 -12 -22 -15 -12 -16 -12 -5 2 7 9 10 19 6 22 -3 4 -4 7 0 7 3 0 8 -4 11
-9z m693 -33 c-3 -8 -6 -5 -6 6 -1 11 2 17 5 13 3 -3 4 -12 1 -19z m143 3 c0
-17 -6 -19 -52 -15 -69 7 -74 14 -10 14 29 0 52 5 52 10 0 6 2 10 5 10 3 0 5
-9 5 -19z m-237 2 c-18 -2 -48 -2 -65 0 -18 2 -4 4 32 4 36 0 50 -2 33 -4z
m-518 -21 c-3 -3 -11 0 -18 7 -9 10 -8 11 6 5 10 -3 15 -9 12 -12z m1370 -3
c11 -17 -1 -21 -15 -4 -8 9 -8 15 -2 15 6 0 14 -5 17 -11z"/>
<path d="M336 1332 c-3 -5 1 -9 9 -9 8 0 12 4 9 9 -3 4 -7 8 -9 8 -2 0 -6 -4
-9 -8z"/>
<path d="M833 1046 c5 -16 27 -19 27 -3 0 7 -7 14 -15 14 -9 0 -14 -5 -12 -11z"/>
<path d="M1860 1348 l0 -203 33 -1 c17 -1 25 0 16 3 -12 3 -15 16 -12 66 2 34
8 84 14 110 5 26 9 64 9 82 0 41 68 145 80 124 9 -13 40 -5 40 11 0 6 -35 10
-90 10 l-90 0 0 -202z"/>
<path d="M2320 1415 c0 -122 2 -135 18 -134 31 1 47 13 50 39 5 33 3 32 51 24
27 -4 41 -12 41 -22 0 -17 -40 -55 -49 -47 -3 4 1 10 9 15 8 5 11 12 7 17 -5
4 -12 1 -18 -7 -8 -13 -10 -13 -19 0 -7 12 -9 10 -7 -7 0 -12 5 -19 10 -16 4
3 11 -4 14 -16 3 -12 10 -21 16 -21 6 0 2 -6 -8 -14 -11 -8 -23 -12 -26 -10
-3 2 -25 -18 -47 -45 l-40 -48 1 -156 2 -157 26 0 c20 0 25 5 25 23 -1 12 -7
27 -14 32 -14 11 -7 45 9 45 5 0 9 7 9 16 0 9 5 12 12 8 6 -4 8 -3 5 4 -4 5
-16 8 -27 5 -12 -3 -20 0 -20 6 0 7 4 10 8 7 4 -2 14 0 22 6 13 8 13 9 -1 5
-9 -3 -22 -1 -30 4 -11 7 -11 9 0 9 9 0 11 8 6 27 -6 24 -5 25 11 12 15 -13
16 -12 9 10 -5 17 -4 22 5 16 8 -5 10 -2 6 11 -4 12 3 30 19 48 27 31 33 45
12 28 -10 -8 -16 -6 -26 9 -7 12 -10 24 -7 27 3 3 6 1 6 -5 0 -18 34 -9 42 10
4 10 12 15 18 12 5 -3 10 -1 10 5 0 6 4 9 9 5 6 -3 8 3 6 13 -3 15 2 18 26 14
16 -2 32 -9 36 -15 3 -6 1 -7 -5 -3 -7 4 -8 -3 -2 -23 4 -16 5 -33 2 -37 -4
-4 -2 -4 4 -1 7 4 12 -3 12 -18 0 -14 -4 -22 -9 -19 -4 2 -2 -8 6 -22 8 -15
12 -31 9 -36 -3 -4 4 -8 16 -8 19 0 20 1 6 16 -9 8 -16 25 -15 37 0 14 2 17 6
7 2 -8 7 -22 10 -30 4 -12 7 -12 18 4 12 16 15 17 20 4 3 -8 12 -15 19 -15 8
0 12 7 8 15 -3 9 0 13 7 11 7 -3 13 -9 13 -14 0 -6 4 -15 10 -22 7 -9 -4 -27
-38 -63 -40 -43 -49 -48 -63 -38 -14 11 -14 11 -3 -3 18 -24 -16 -64 -59 -67
-18 -1 -35 -5 -38 -9 -4 -3 9 -4 27 -1 17 2 32 1 32 -3 0 -12 -27 -29 -36 -21
-4 4 -2 -1 5 -11 11 -13 26 -17 67 -16 30 1 54 6 54 11 0 5 -4 6 -10 3 -6 -3
-7 1 -4 9 3 9 2 16 -4 16 -12 0 -4 38 11 47 6 4 8 0 4 -10 -5 -14 -3 -15 13
-5 12 8 15 15 9 19 -8 5 -8 9 0 13 6 4 14 1 17 -7 5 -15 60 -21 69 -7 7 11
-31 23 -45 15 -12 -7 -53 19 -43 28 11 11 25 8 17 -4 -4 -7 1 -9 12 -7 11 2
18 11 18 21 -1 12 6 17 23 17 13 0 22 -4 18 -9 -3 -5 -1 -12 3 -15 5 -3 8 -17
7 -31 -4 -29 3 -31 31 -10 18 14 18 14 0 15 -14 0 -17 5 -12 25 5 19 2 25 -10
25 -11 0 -15 6 -11 20 3 10 2 19 -2 18 -15 -3 -54 19 -43 26 6 3 13 2 16 -3 4
-5 20 -7 36 -5 24 4 30 2 30 -13 0 -15 -2 -16 -10 -3 -5 8 -10 10 -10 4 0 -6
7 -17 15 -24 12 -10 15 -10 15 4 0 9 8 16 18 15 10 0 12 -3 5 -6 -8 -3 -13
-24 -13 -54 0 -27 -4 -49 -10 -49 -5 0 -10 -8 -10 -17 0 -15 2 -16 10 -3 8 13
10 12 10 -2 0 -10 6 -18 13 -18 8 0 7 -4 -3 -10 -10 -6 -11 -10 -2 -10 6 0 12
-10 12 -22 0 -19 -2 -20 -10 -8 -7 10 -9 -7 -8 -57 2 -50 7 -73 16 -73 6 0 12
4 12 10 0 5 7 7 15 4 25 -10 30 25 6 42 -27 19 -20 33 14 26 17 -3 24 -9 21
-18 -3 -7 0 -16 6 -20 7 -4 6 -9 -3 -15 -10 -6 -7 -10 11 -17 14 -5 28 -8 31
-6 4 2 7 50 8 106 1 67 7 112 16 132 8 16 15 43 15 61 0 20 8 39 22 51 50 45
110 173 62 133 -9 -7 -26 -13 -37 -14 -14 0 -23 -8 -25 -20 -5 -28 -22 -44
-22 -21 0 15 -3 16 -14 7 -10 -8 -16 -9 -21 -1 -10 16 -25 12 -25 -7 0 -15 -2
-14 -15 3 -11 14 -14 15 -15 4 0 -12 -2 -12 -9 -2 -4 7 -22 15 -39 17 l-32 4
0 -61 0 -62 -35 34 c-19 18 -37 31 -40 28 -3 -3 1 -12 9 -21 13 -12 13 -16 2
-20 -16 -6 -28 37 -14 51 4 4 -5 7 -21 6 -18 -1 -32 4 -35 12 -7 17 16 18 32
2 7 -7 12 -9 12 -5 0 3 -15 21 -32 39 -18 18 -32 37 -30 41 1 5 -2 6 -8 2 -6
-4 -17 10 -26 30 -8 21 -24 40 -35 42 -12 4 -18 11 -15 20 3 8 1 11 -4 8 -6
-3 -10 -13 -10 -20 0 -8 -6 -12 -14 -9 -11 4 -9 10 8 27 23 24 66 25 66 1 0
-8 9 -14 20 -14 11 0 20 5 20 10 0 6 7 10 15 10 8 0 15 -4 15 -9 0 -20 34 -21
55 -1 27 26 35 25 36 -2 0 -13 4 -32 9 -43 6 -14 9 -4 9 38 1 36 -3 56 -9 52
-5 -3 -10 -1 -10 5 0 6 -4 8 -10 5 -6 -4 -9 12 -9 42 1 26 4 38 6 26 8 -43 32
-26 36 25 2 26 4 -26 5 -116 l2 -162 43 7 c23 3 60 14 82 24 22 10 50 19 63
19 25 0 28 19 11 68 -8 22 -7 36 1 53 10 18 10 21 -3 16 -68 -26 -166 -13
-168 22 0 9 0 53 1 99 1 68 -1 82 -14 82 -9 0 -16 -6 -16 -12 0 -9 -4 -8 -10
2 -9 13 -11 13 -20 0 -6 -10 -10 -11 -10 -2 0 9 -50 12 -215 12 l-215 0 0
-135z m99 -24 c-13 -4 -15 -2 -24 29 l-8 25 21 -25 c11 -14 16 -27 11 -29z
m78 -110 c-3 -13 1 -21 12 -24 11 -3 9 -5 -6 -6 -24 -1 -27 6 -17 33 9 23 17
20 11 -3z m85 -98 c-13 -22 -41 -26 -37 -4 2 9 4 17 4 19 1 1 10 2 21 2 17 0
19 -3 12 -17z m-167 -3 c3 -6 -1 -7 -9 -4 -18 7 -21 14 -7 14 6 0 13 -4 16
-10z m226 -54 c-9 -11 -9 -15 1 -19 7 -3 3 -4 -9 -4 -18 1 -20 4 -11 20 7 14
6 22 -3 31 -9 8 -10 8 -5 -2 4 -7 -1 -23 -12 -36 -18 -23 -19 -23 -30 -5 -17
27 -15 39 8 39 11 0 23 7 26 15 5 12 9 11 26 -5 17 -15 19 -22 9 -34z m-256
-24 c-3 -3 -11 0 -18 7 -9 10 -8 11 6 5 10 -3 15 -9 12 -12z m-18 -34 c-3 -8
-6 -5 -6 6 -1 11 2 17 5 13 3 -3 4 -12 1 -19z m333 -2 c0 -11 -19 -15 -25 -6
-3 5 1 10 9 10 9 0 16 -2 16 -4z m190 -41 c0 -18 16 -20 23 -2 3 6 6 -13 6
-43 0 -47 -1 -52 -12 -35 -11 18 -12 17 -18 -20 -6 -40 -6 -39 -8 12 0 28 -4
54 -8 56 -5 3 -6 -24 -5 -59 2 -40 0 -64 -7 -64 -6 0 -8 7 -5 15 5 11 2 14
-12 9 -11 -4 -16 -4 -12 1 4 4 3 14 -2 20 -6 7 -7 32 -4 59 6 40 10 46 26 40
10 -3 18 -2 17 3 -3 15 1 23 11 23 6 0 10 -7 10 -15z m-23 -171 c-3 -3 -12 -4
-19 -1 -8 3 -5 6 6 6 11 1 17 -2 13 -5z m-277 -12 c0 -5 -7 -9 -15 -9 -8 0
-12 4 -9 9 3 4 9 8 15 8 5 0 9 -4 9 -8z m330 -34 c0 -10 -7 -18 -15 -18 -8 0
-15 -4 -15 -10 0 -5 5 -10 11 -10 5 0 7 -5 3 -12 -5 -8 -12 -2 -20 17 -7 17
-13 24 -14 17 0 -18 -25 -9 -25 9 0 8 11 16 25 19 42 10 50 8 50 -12z m-70
-88 c0 -18 -19 -11 -30 11 -11 19 -10 20 9 9 12 -6 21 -15 21 -20z m67 9 c2
-16 -1 -19 -9 -11 -5 5 -7 15 -4 21 10 15 12 14 13 -10z"/>
<path d="M2081 1444 c0 -11 3 -14 6 -6 3 7 2 16 -1 19 -3 4 -6 -2 -5 -13z"/>
<path d="M3003 1406 c-62 -17 -72 -32 -27 -39 27 -5 40 -2 49 9 10 14 13 14
23 1 7 -8 11 -20 10 -27 -2 -7 3 -15 11 -18 10 -3 12 0 8 11 -8 20 16 26 81
17 58 -7 71 -1 44 23 -41 37 -115 46 -199 23z m94 -22 c-3 -3 -12 -4 -19 -1
-8 3 -5 6 6 6 11 1 17 -2 13 -5z"/>
<path d="M2080 1400 c-1 -8 -2 -21 -1 -27 1 -7 -3 -13 -9 -13 -5 0 -10 -9 -10
-20 0 -11 -6 -20 -12 -20 -10 0 -10 -2 0 -9 9 -6 14 -45 15 -143 1 -75 -1
-134 -5 -132 -3 2 -8 -23 -10 -57 -1 -33 0 -63 5 -66 4 -2 7 6 8 19 1 23 1 23
8 -2 4 -14 5 -27 2 -30 -3 -3 -6 -20 -6 -39 0 -19 -5 -36 -12 -38 -8 -3 -9 6
-3 32 4 19 4 37 0 40 -4 2 -10 -19 -13 -48 -4 -28 -11 -53 -15 -55 -5 -1 -8
-23 -6 -47 2 -27 -1 -45 -7 -45 -6 0 -8 -9 -3 -22 3 -13 3 -19 -2 -15 -5 5
-14 -8 -20 -30 -7 -21 -16 -37 -21 -36 -5 1 -10 -10 -11 -24 -1 -15 -13 -46
-27 -70 -26 -43 -40 -57 -29 -28 7 16 -4 19 -23 7 -10 -6 -18 -134 -14 -245 1
-36 2 -37 28 -31 15 4 40 7 56 7 18 0 23 3 15 9 -15 9 -6 11 16 2 31 -12 5
-35 -38 -34 -65 3 -90 1 -82 -7 4 -4 27 -6 51 -4 25 1 45 0 45 -4 0 -18 -116
-145 -133 -145 -11 0 -17 5 -14 13 2 6 14 12 26 11 14 0 20 4 17 13 -3 7 -1
13 5 13 6 0 7 5 4 10 -4 7 -14 5 -26 -4 -11 -7 -29 -12 -40 -9 -12 4 -21 -1
-26 -13 -3 -11 -11 -22 -17 -26 -7 -5 -7 -8 2 -8 6 0 12 -7 12 -15 0 -13 20
-15 124 -15 110 0 125 2 129 17 4 17 5 17 6 1 1 -15 10 -18 51 -18 38 0 50 4
50 15 0 9 10 20 23 25 12 5 16 9 10 9 -18 1 -16 31 2 31 9 0 15 9 15 24 0 19
-4 23 -20 19 -14 -4 -20 -1 -18 8 2 7 -6 14 -17 16 -15 3 -17 2 -6 -5 11 -8 9
-11 -8 -17 -13 -4 -18 -11 -14 -18 5 -9 3 -9 -8 0 -16 13 -79 13 -79 1 0 -17
-56 -58 -73 -54 -13 3 -17 0 -13 -9 3 -9 0 -12 -10 -8 -8 3 -14 -1 -14 -11 0
-18 -15 -21 -25 -5 -4 5 3 18 14 28 12 10 21 21 21 24 0 3 21 28 46 55 41 44
49 49 66 39 15 -10 20 -9 28 3 8 12 16 13 57 2 26 -7 50 -17 51 -23 5 -12 32
-12 32 1 0 5 -11 12 -24 16 -16 4 -26 15 -30 35 -5 26 -8 28 -30 20 -13 -6
-33 -7 -44 -4 -11 2 -22 1 -25 -4 -3 -5 12 -8 34 -7 24 1 39 -3 39 -10 0 -7
-18 -10 -55 -8 -57 4 -64 9 -42 31 10 11 10 13 0 7 -17 -9 -16 -5 2 30 17 33
16 35 -14 27 -16 -4 -21 -11 -18 -24 4 -15 0 -19 -19 -19 -13 0 -24 -4 -24
-10 0 -5 -7 -10 -15 -10 -8 0 -15 7 -15 15 0 8 5 15 11 15 7 0 8 7 4 17 -12
31 -14 54 -4 48 5 -4 9 -15 9 -26 0 -12 4 -17 11 -14 6 4 8 14 5 22 -8 20 13
37 48 41 27 3 28 2 15 -15 -13 -17 -13 -17 6 -2 11 9 34 19 50 23 26 6 28 5
14 -6 -8 -7 -23 -26 -33 -41 -15 -25 -15 -29 -1 -43 9 -9 25 -14 35 -11 11 3
20 0 20 -5 0 -7 4 -7 13 0 17 14 56 10 67 -8 7 -10 10 -11 10 -2 0 8 15 12 43
12 23 -1 54 0 70 2 l27 2 0 123 c0 68 -4 123 -8 123 -5 0 -18 -9 -29 -20 -18
-16 -22 -17 -27 -4 -3 8 -10 12 -16 9 -6 -3 -7 1 -4 10 4 8 1 21 -5 29 -6 8
-12 30 -13 50 -1 20 -5 36 -10 36 -5 0 -21 11 -36 25 -17 16 -20 23 -9 19 10
-3 17 -1 17 5 0 6 -5 11 -11 11 -6 0 -8 9 -4 20 3 11 2 20 -3 20 -5 0 -8 19
-7 43 2 23 -1 47 -6 53 -5 6 -10 20 -12 32 -2 12 -6 24 -10 28 -3 4 -5 -2 -2
-14 3 -16 -1 -19 -18 -14 -12 3 -16 7 -10 9 6 2 9 13 6 23 -4 14 0 20 11 20 9
0 16 5 16 10 0 6 -6 10 -13 10 -15 0 -17 36 -4 58 5 6 4 12 -1 12 -5 0 -9 7
-9 15 0 8 4 12 9 9 4 -3 8 11 8 30 0 20 -4 36 -10 36 -9 0 -6 118 6 224 3 33
0 55 -9 70 -8 12 -17 31 -20 41 -3 14 -5 15 -7 5z m-7 -410 c3 -11 1 -20 -4
-20 -5 0 -9 9 -9 20 0 11 2 20 4 20 2 0 6 -9 9 -20z m50 -315 c4 -25 9 -56 13
-70 6 -24 5 -25 -45 -25 l-50 0 6 33 c4 17 7 46 8 62 0 34 10 45 41 45 18 0
22 -8 27 -45z m-33 -190 c0 -21 38 -19 42 2 3 14 7 13 32 -9 20 -17 25 -27 18
-32 -7 -4 -12 -1 -12 8 0 9 -5 16 -11 16 -5 0 -7 -5 -4 -10 4 -6 3 -10 -2 -9
-4 1 -10 0 -13 -1 -20 -7 -86 -5 -92 4 -5 7 -11 8 -15 1 -5 -5 -16 -11 -27
-13 -25 -5 -11 15 28 39 37 23 56 24 56 4z m56 -63 c25 3 29 0 29 -22 0 -20
-5 -25 -22 -23 -13 2 -23 -2 -23 -7 0 -6 -5 -10 -11 -10 -5 0 -8 4 -4 9 3 6
-7 6 -27 0 -39 -11 -64 6 -34 23 10 6 26 18 35 27 9 9 19 13 22 8 3 -4 19 -7
35 -5z m64 10 c0 -13 -12 -22 -22 -16 -10 6 -1 24 13 24 5 0 9 -4 9 -8z m-163
-18 c-3 -3 -12 -4 -19 -1 -8 3 -5 6 6 6 11 1 17 -2 13 -5z m237 -43 c4 -5 -3
-7 -14 -4 -23 6 -26 13 -6 13 8 0 17 -4 20 -9z m-109 -31 c3 -5 1 -10 -4 -10
-6 0 -11 5 -11 10 0 6 2 10 4 10 3 0 8 -4 11 -10z m-45 -29 c0 -11 -4 -22 -9
-25 -11 -7 -20 14 -13 32 7 19 22 14 22 -7z m-59 -20 c-7 -5 -10 -14 -7 -20 7
-11 -6 -16 -17 -5 -10 10 5 34 22 34 13 0 13 -2 2 -9z m154 -11 c4 -6 -14 -10
-47 -10 -38 0 -49 3 -38 10 20 13 77 13 85 0z m85 0 c0 -5 -8 -10 -17 -10 -15
0 -16 2 -3 10 19 12 20 12 20 0z m-190 -190 c0 -5 -4 -10 -10 -10 -5 0 -10 5
-10 10 0 6 5 10 10 10 6 0 10 -4 10 -10z m0 -35 c0 -19 -6 -19 -14 0 -3 8 -1
15 4 15 6 0 10 -7 10 -15z m-150 -15 c0 -5 -5 -10 -11 -10 -5 0 -7 5 -4 10 3
6 8 10 11 10 2 0 4 -4 4 -10z"/>
<path d="M2068 593 c12 -2 32 -2 45 0 12 2 2 4 -23 4 -25 0 -35 -2 -22 -4z"/>
<path d="M2069 383 c-13 -16 -12 -17 4 -4 16 13 21 21 13 21 -2 0 -10 -8 -17
-17z"/>
<path d="M1249 1381 c6 -10 12 -33 13 -50 1 -17 6 -31 10 -31 4 0 7 -5 6 -11
-2 -6 3 -14 10 -16 15 -6 7 34 -14 76 -8 14 -14 32 -14 39 0 6 -5 12 -10 12
-7 0 -7 -6 -1 -19z"/>
<path d="M1230 1340 c0 -5 5 -10 11 -10 5 0 7 5 4 10 -3 6 -8 10 -11 10 -2 0
-4 -4 -4 -10z"/>
<path d="M3095 1341 c-2 -4 0 -13 6 -21 6 -10 9 -11 9 -2 0 7 14 12 37 12 20
0 33 3 30 6 -9 9 -77 12 -82 5z"/>
<path d="M1190 1320 c0 -5 5 -10 11 -10 5 0 7 5 4 10 -3 6 -8 10 -11 10 -2 0
-4 -4 -4 -10z"/>
<path d="M1160 1310 c0 -6 -4 -9 -9 -5 -5 3 -12 1 -15 -4 -10 -16 8 -20 27 -6
12 8 14 15 8 20 -6 3 -11 1 -11 -5z"/>
<path d="M3056 1305 c-6 -17 2 -45 14 -45 5 0 8 -9 7 -20 -1 -15 -8 -20 -29
-20 -15 0 -28 -4 -28 -8 0 -14 57 -12 69 2 10 12 20 12 73 0 33 -8 61 -13 62
-12 1 2 7 13 14 25 6 13 12 38 12 57 0 30 -2 34 -22 28 -13 -3 -25 -8 -28 -11
-8 -10 -84 -27 -102 -23 -10 2 -18 10 -18 17 0 20 -17 27 -24 10z"/>
<path d="M473 1270 c0 -25 2 -35 4 -22 2 12 2 32 0 45 -2 12 -4 2 -4 -23z"/>
<path d="M673 1296 c3 -8 1 -17 -6 -20 -7 -2 -5 -5 5 -5 11 -1 16 6 15 19 -1
11 -5 20 -10 20 -5 0 -7 -6 -4 -14z"/>
<path d="M1340 1294 c0 -8 5 -12 10 -9 6 4 8 11 5 16 -9 14 -15 11 -15 -7z"/>
<path d="M1290 1260 c-8 -5 -10 -10 -5 -11 6 0 18 -2 28 -4 9 -2 17 3 17 11 0
16 -18 18 -40 4z"/>
<path d="M2320 1260 c0 -5 9 -10 21 -10 11 0 17 5 14 10 -3 6 -13 10 -21 10
-8 0 -14 -4 -14 -10z"/>
<path d="M670 1249 c0 -5 5 -7 10 -4 6 3 10 8 10 11 0 2 -4 4 -10 4 -5 0 -10
-5 -10 -11z"/>
<path d="M2410 1229 c0 -5 5 -7 10 -4 6 3 10 8 10 11 0 2 -4 4 -10 4 -5 0 -10
-5 -10 -11z"/>
<path d="M1695 1193 c3 -7 -1 -28 -9 -48 -12 -27 -21 -35 -40 -35 -15 0 -26
-4 -26 -10 0 -5 12 -10 26 -10 22 0 25 -2 14 -15 -11 -13 -8 -15 14 -15 16 0
25 -4 21 -10 -3 -5 1 -10 9 -10 9 0 16 9 16 20 0 11 5 20 10 20 21 0 10 69
-16 97 -14 15 -23 23 -19 16z m18 -43 c3 -13 1 -18 -6 -13 -6 4 -8 0 -4 -10 3
-10 2 -17 -3 -17 -11 0 -12 6 -4 38 8 27 10 28 17 2z"/>
<path d="M3150 1192 c0 -7 -4 -11 -9 -8 -23 14 -101 -57 -86 -78 3 -3 2 -4 -1
-2 -8 6 -78 -73 -71 -80 3 -3 16 0 29 6 18 9 16 5 -9 -19 -37 -34 -41 -43 -16
-34 12 5 14 3 8 -7 -6 -10 -3 -12 13 -8 16 5 19 2 15 -11 -3 -9 -10 -22 -16
-28 -6 -9 -6 -13 2 -13 6 0 15 10 20 23 31 77 50 120 51 111 0 -17 -24 -82
-54 -143 -16 -34 -23 -58 -17 -64 5 -5 7 -16 4 -23 -3 -8 -1 -14 5 -14 11 0
42 61 42 83 0 9 5 19 10 22 32 20 -14 -90 -55 -131 -13 -13 -19 -24 -13 -24 5
0 7 -7 4 -16 -4 -9 -1 -24 6 -32 11 -13 11 -14 -1 -7 -11 6 -13 4 -8 -8 4 -11
-2 -22 -18 -33 -14 -9 -25 -21 -24 -28 0 -7 2 -6 6 2 14 36 23 0 23 -97 0
-102 -1 -110 -19 -108 -11 0 -18 4 -15 8 7 12 -25 31 -41 25 -10 -3 -13 -2
-10 5 4 5 2 16 -4 23 -7 8 -10 20 -9 27 2 9 -6 14 -22 15 -49 1 -60 4 -60 15
0 6 10 9 23 7 29 -6 55 18 38 35 -9 9 -16 8 -31 -1 -24 -14 -30 -15 -30 -3 0
5 9 13 20 16 11 3 20 10 20 15 0 5 -8 7 -17 4 -15 -5 -16 -4 -3 5 20 14 28 14
32 -3 3 -12 5 -12 16 0 11 12 10 14 -3 14 -16 0 -19 9 -9 35 5 12 9 13 14 5 5
-8 9 -6 14 5 5 14 2 16 -16 10 -13 -3 -37 -7 -54 -8 -21 -1 -30 -7 -31 -20 -1
-9 2 -15 8 -12 5 4 9 2 9 -4 0 -5 -4 -12 -9 -16 -6 -3 -10 -91 -11 -206 0
-111 -3 -205 -6 -210 -3 -5 2 -9 10 -9 9 0 16 6 16 13 0 9 2 9 8 0 6 -9 11 -6
21 8 7 12 8 18 3 15 -5 -3 -12 5 -14 19 -4 17 -1 25 9 25 8 0 12 4 9 9 -7 11
22 23 35 15 12 -7 12 -51 -1 -59 -5 -3 -7 -11 -5 -18 8 -22 -10 -36 -50 -39
-38 -3 -40 -5 -37 -33 5 -42 18 -51 92 -63 36 -6 79 -14 95 -17 17 -4 44 -7
62 -8 17 0 30 -4 28 -7 -2 -4 15 -8 38 -9 23 -2 47 -3 54 -4 7 0 12 -3 11 -6
-3 -30 5 -37 42 -39 l40 -3 0 71 c0 45 -4 69 -10 65 -5 -3 -10 1 -10 9 0 9 5
16 10 16 6 0 10 38 10 95 0 78 -3 95 -15 95 -8 0 -15 -4 -15 -10 0 -5 5 -10
10 -10 6 0 10 -4 10 -10 0 -5 -7 -10 -15 -10 -10 0 -15 10 -15 33 0 39 13 62
30 52 8 -5 7 0 -2 14 -10 17 -14 18 -16 6 -5 -22 -17 -18 -37 11 -9 15 -13 24
-8 21 5 -4 10 0 10 7 0 8 -8 11 -20 8 -14 -4 -18 -1 -15 9 3 8 12 12 19 10 8
-2 26 -6 41 -9 15 -2 25 -8 22 -13 -3 -5 0 -9 5 -9 7 0 10 54 9 163 -1 93 -4
139 -7 107 -4 -38 -10 -54 -19 -52 -8 1 -29 -2 -47 -7 l-33 -9 1 79 c2 66 6
82 23 100 16 16 26 19 39 12 16 -9 15 -12 -6 -26 -15 -11 -25 -13 -30 -6 -4 7
-9 4 -13 -6 -8 -23 -8 -25 7 -23 13 3 13 -5 2 -34 -6 -14 -2 -18 19 -18 21 0
26 5 26 25 0 22 9 30 33 26 4 0 7 89 7 199 l0 200 -24 0 c-14 0 -28 5 -32 11
-4 8 -9 7 -15 -2 -8 -12 -11 -11 -19 1 -7 11 -10 11 -10 2z m60 -322 c0 -5 -5
-10 -11 -10 -5 0 -7 5 -4 10 3 6 8 10 11 10 2 0 4 -4 4 -10z m-129 -430 c9 13
10 13 6 0 -2 -8 -13 -16 -25 -18 -20 -3 -22 1 -21 40 1 41 2 41 9 13 6 -19 8
14 8 95 0 183 6 189 10 10 2 -111 6 -151 13 -140z m-54 43 c-2 -37 -3 -10 -3
62 0 72 1 102 3 68 2 -34 2 -93 0 -130z m-20 125 c-3 -8 -6 -5 -6 6 -1 11 2
17 5 13 3 -3 4 -12 1 -19z m90 -10 c-3 -7 -5 -2 -5 12 0 14 2 19 5 13 2 -7 2
-19 0 -25z m-90 -141 c-2 -23 -3 -1 -3 48 0 50 1 68 3 42 2 -26 2 -67 0 -90z
m40 71 c-2 -13 -4 -3 -4 22 0 25 2 35 4 23 2 -13 2 -33 0 -45z m-147 -52 c0
-3 -4 -8 -10 -11 -5 -3 -10 -1 -10 4 0 6 5 11 10 11 6 0 10 -2 10 -4z m-45
-14 c6 -4 17 -16 25 -27 13 -16 10 -16 -18 4 -28 20 -35 21 -50 9 -15 -12 -16
-11 -3 5 14 18 30 21 46 9z m9 -47 c3 -8 1 -15 -4 -15 -6 0 -10 7 -10 15 0 8
2 15 4 15 2 0 6 -7 10 -15z m-7 -67 c-3 -8 -6 -5 -6 6 -1 11 2 17 5 13 3 -3 4
-12 1 -19z m323 -198 c11 -20 4 -26 -15 -12 -14 10 -17 32 -5 32 5 0 14 -9 20
-20z m-250 -7 c0 -13 2 -15 8 -5 7 10 15 10 36 2 15 -5 24 -15 21 -20 -5 -8
-11 -7 -20 0 -8 7 -19 9 -24 5 -6 -3 -26 -3 -46 1 -44 8 -48 34 -5 34 22 0 30
-5 30 -17z m290 -2 c0 -6 -4 -13 -10 -16 -5 -3 -10 1 -10 9 0 9 5 16 10 16 6
0 10 -4 10 -9z m-165 -28 c8 4 17 2 20 -3 4 -6 -7 -10 -23 -10 -18 0 -32 6
-36 16 -5 14 -4 15 9 4 8 -7 21 -10 30 -7z m69 -42 c4 -5 -3 -7 -14 -4 -23 6
-26 13 -6 13 8 0 17 -4 20 -9z"/>
<path d="M2481 1166 c-9 -10 -18 -13 -25 -7 -7 6 -11 2 -12 -15 -1 -13 2 -24
8 -24 5 0 6 5 3 10 -3 6 -2 10 4 10 5 0 13 -9 16 -21 4 -11 9 -18 12 -16 2 3
0 15 -7 26 -9 19 -8 21 15 21 14 0 25 5 25 11 0 5 -4 8 -9 5 -5 -4 -11 -1 -13
5 -2 7 -9 5 -17 -5z"/>
<path d="M1335 1140 c-3 -5 -1 -10 4 -10 6 0 11 5 11 10 0 6 -2 10 -4 10 -3 0
-8 -4 -11 -10z"/>
<path d="M2490 1136 c0 -2 7 -7 16 -10 8 -3 12 -2 9 4 -6 10 -25 14 -25 6z"/>
<path d="M1861 1024 c0 -77 3 -104 12 -101 7 2 11 19 9 42 -3 28 -1 35 9 30 8
-5 10 -4 5 4 -12 18 -15 61 -5 61 5 0 9 7 9 15 0 8 -7 15 -15 15 -8 0 -15 5
-15 10 0 6 5 10 11 10 5 0 7 5 4 10 -17 28 -25 0 -24 -96z"/>
<path d="M2440 1100 c-23 -7 -23 -8 -3 -9 12 -1 25 4 28 9 3 6 5 10 3 9 -2 -1
-14 -5 -28 -9z"/>
<path d="M2467 1076 c-3 -8 0 -18 6 -23 14 -10 75 -18 66 -9 -3 3 -18 7 -32 8
-29 3 -35 13 -13 21 7 3 19 0 25 -6 13 -13 26 -3 16 12 -9 16 -62 13 -68 -3z"/>
<path d="M1192 1060 c0 -14 2 -19 5 -12 2 6 2 18 0 25 -3 6 -5 1 -5 -13z"/>
<path d="M2390 1072 c0 -6 9 -16 19 -22 25 -13 31 -13 31 2 0 6 -3 8 -7 5 -3
-4 -15 0 -25 10 -10 9 -18 11 -18 5z"/>
<path d="M1485 1039 c-17 -6 -17 -8 -2 -8 9 -1 17 -8 17 -17 0 -14 -3 -14 -15
-4 -10 9 -15 9 -15 1 0 -6 3 -11 8 -12 4 0 14 -2 22 -4 10 -2 17 6 18 21 2 28
-6 34 -33 23z"/>
<path d="M660 1025 c-8 -9 -8 -15 -2 -15 12 0 26 19 19 26 -2 2 -10 -2 -17
-11z"/>
<path d="M1757 1020 c3 -11 10 -20 15 -20 6 0 8 7 4 15 -3 8 -1 15 3 15 5 0
11 -5 13 -12 3 -7 7 -6 11 5 5 14 1 17 -22 17 -24 0 -28 -3 -24 -20z"/>
<path d="M2526 1021 c8 -8 43 -8 38 0 -2 4 -13 7 -24 6 -10 -1 -17 -3 -14 -6z"/>
<path d="M1833 1001 c-14 -22 -9 -99 6 -114 8 -8 11 11 11 61 0 40 -1 72 -3
72 -1 0 -8 -9 -14 -19z"/>
<path d="M1223 970 c-27 -11 -30 -22 -6 -18 18 3 18 2 21 -84 2 -35 6 -48 17
-48 8 0 15 -7 15 -16 0 -8 5 -12 10 -9 6 4 10 12 9 18 -1 7 1 19 5 28 4 9 6
43 4 75 -3 55 -5 59 -28 61 -14 1 -35 -2 -47 -7z m62 -20 c8 -13 -5 -13 -25 0
-13 8 -13 10 2 10 9 0 20 -4 23 -10z"/>
<path d="M1431 964 c0 -11 3 -14 6 -6 3 7 2 16 -1 19 -3 4 -6 -2 -5 -13z"/>
<path d="M1353 958 c-5 -7 -7 -38 -5 -70 3 -45 8 -57 23 -61 17 -5 19 1 19 69
0 56 -3 74 -14 74 -7 0 -18 -6 -23 -12z"/>
<path d="M2470 955 c-7 -9 -9 -15 -4 -14 5 1 17 -1 27 -6 26 -11 30 -1 8 19
-16 15 -19 15 -31 1z"/>
<path d="M2765 961 c-3 -5 -2 -12 3 -15 5 -3 9 1 9 9 0 17 -3 19 -12 6z"/>
<path d="M1586 944 c-12 -11 -16 -35 -16 -85 l0 -69 40 0 c30 0 38 3 35 15
-16 49 -15 48 -30 35 -13 -11 -14 -10 -9 6 4 10 15 27 26 37 10 10 18 22 18
27 0 6 5 10 11 10 5 0 7 -4 4 -10 -3 -5 -1 -10 4 -10 17 0 13 25 -7 43 -23 21
-56 22 -76 1z"/>
<path d="M2526 948 c3 -5 10 -6 15 -3 13 9 11 12 -6 12 -8 0 -12 -4 -9 -9z"/>
<path d="M1457 943 c-4 -3 -7 -19 -7 -35 0 -24 4 -28 28 -28 23 1 24 2 10 11
-22 12 -24 44 -4 36 10 -4 13 -1 9 9 -5 15 -25 19 -36 7z"/>
<path d="M1757 943 c-13 -13 -7 -53 8 -53 8 0 15 5 15 11 0 5 -4 7 -10 4 -5
-3 -10 1 -10 9 0 9 7 16 15 16 8 0 15 5 15 10 0 11 -23 14 -33 3z"/>
<path d="M1402 915 c0 -16 2 -22 5 -12 2 9 2 23 0 30 -3 6 -5 -1 -5 -18z"/>
<path d="M2115 930 c-3 -5 -1 -10 4 -10 6 0 11 5 11 10 0 6 -2 10 -4 10 -3 0
-8 -4 -11 -10z"/>
<path d="M2401 921 c-9 -6 -6 -8 13 -8 14 0 23 3 20 8 -7 11 -15 11 -33 0z"/>
<path d="M325 902 c-3 -3 -5 -10 -5 -16 0 -6 5 -4 10 4 7 11 10 11 10 2 0 -7
5 -10 10 -7 6 3 10 10 10 14 0 8 -27 11 -35 3z"/>
<path d="M272 875 c0 -16 2 -22 5 -12 2 9 2 23 0 30 -3 6 -5 -1 -5 -18z"/>
<path d="M2365 890 c-3 -5 -2 -10 4 -10 5 0 13 5 16 10 3 6 2 10 -4 10 -5 0
-13 -4 -16 -10z"/>
<path d="M2698 883 c7 -3 16 -2 19 1 4 3 -2 6 -13 5 -11 0 -14 -3 -6 -6z"/>
<path d="M2663 873 c17 -10 6 -23 -12 -14 -17 10 -31 6 -31 -9 0 -4 28 -8 62
-9 33 -1 65 -4 70 -7 4 -3 8 3 9 13 0 11 3 13 6 5 3 -7 -1 -20 -9 -29 -11 -14
-11 -16 2 -11 17 5 27 58 11 58 -5 0 -12 -4 -15 -9 -5 -8 -36 -4 -86 11 -8 3
-12 3 -7 1z"/>
<path d="M1838 834 c-2 -19 0 -37 4 -40 4 -3 8 13 8 35 0 51 -6 53 -12 5z"/>
<path d="M440 844 c0 -8 5 -12 10 -9 6 3 10 10 10 16 0 5 -4 9 -10 9 -5 0 -10
-7 -10 -16z"/>
<path d="M1401 844 c0 -11 3 -14 6 -6 3 7 2 16 -1 19 -3 4 -6 -2 -5 -13z"/>
<path d="M1755 849 c-4 -6 -5 -12 -2 -15 2 -3 7 2 10 11 7 17 1 20 -8 4z"/>
<path d="M2395 850 c-3 -5 -1 -10 4 -10 6 0 11 5 11 10 0 6 -2 10 -4 10 -3 0
-8 -4 -11 -10z"/>
<path d="M2455 850 c-3 -5 -1 -10 4 -10 6 0 11 5 11 10 0 6 -2 10 -4 10 -3 0
-8 -4 -11 -10z"/>
<path d="M1457 843 c-4 -3 -7 -17 -7 -30 0 -17 6 -23 23 -23 20 1 20 2 5 13
-12 9 -14 17 -7 30 10 16 -1 24 -14 10z"/>
<path d="M2681 826 c12 -10 60 -16 54 -6 -3 5 -18 10 -32 10 -15 0 -24 -2 -22
-4z"/>
<path d="M146 805 c4 -8 11 -15 16 -15 6 0 5 6 -2 15 -7 8 -14 15 -16 15 -2 0
-1 -7 2 -15z"/>
<path d="M1401 804 c0 -11 3 -14 6 -6 3 7 2 16 -1 19 -3 4 -6 -2 -5 -13z"/>
<path d="M1751 804 c0 -11 3 -14 6 -6 3 7 2 16 -1 19 -3 4 -6 -2 -5 -13z"/>
<path d="M192 796 c7 -8 15 -12 17 -11 5 6 -10 25 -20 25 -5 0 -4 -6 3 -14z"/>
<path d="M1660 800 c0 -5 5 -10 11 -10 5 0 7 5 4 10 -3 6 -8 10 -11 10 -2 0
-4 -4 -4 -10z"/>
<path d="M380 790 c-9 -6 -10 -10 -3 -10 6 0 15 5 18 10 8 12 4 12 -15 0z"/>
<path d="M96 782 c-3 -3 -6 -13 -6 -23 0 -10 -8 -20 -17 -22 -17 -4 -17 -5 -1
-6 10 0 23 8 30 19 7 11 16 20 21 20 4 0 6 -4 3 -8 -2 -4 -1 -14 5 -22 6 -11
9 -9 9 11 0 25 -30 46 -44 31z"/>
<path d="M181 774 c0 -11 3 -14 6 -6 3 7 2 16 -1 19 -3 4 -6 -2 -5 -13z"/>
<path d="M155 760 c3 -5 8 -10 11 -10 2 0 4 5 4 10 0 6 -5 10 -11 10 -5 0 -7
-4 -4 -10z"/>
<path d="M1380 759 c0 -7 -16 -8 -47 -4 -42 6 -46 6 -30 -7 23 -17 87 -11 87
8 0 8 -2 14 -5 14 -3 0 -5 -5 -5 -11z"/>
<path d="M106 731 c-4 -7 -5 -15 -2 -18 9 -9 19 4 14 18 -4 11 -6 11 -12 0z"/>
<path d="M71 704 c0 -11 3 -14 6 -6 3 7 2 16 -1 19 -3 4 -6 -2 -5 -13z"/>
<path d="M3156 706 c3 -9 13 -16 22 -16 8 0 13 1 11 3 -2 1 -12 9 -22 16 -15
12 -17 12 -11 -3z"/>
<path d="M592 680 c0 -14 2 -19 5 -12 2 6 2 18 0 25 -3 6 -5 1 -5 -13z"/>
<path d="M1653 675 c0 -8 4 -12 9 -9 5 3 6 10 3 15 -9 13 -12 11 -12 -6z"/>
<path d="M1680 686 c0 -2 7 -7 16 -10 8 -3 12 -2 9 4 -6 10 -25 14 -25 6z"/>
<path d="M615 670 c-3 -5 -1 -10 4 -10 6 0 11 5 11 10 0 6 -2 10 -4 10 -3 0
-8 -4 -11 -10z"/>
<path d="M1650 642 c0 -10 36 -9 46 1 4 4 -5 7 -19 7 -15 0 -27 -4 -27 -8z"/>
<path d="M2930 620 c10 -6 11 -10 3 -10 -7 0 -13 -7 -13 -15 0 -8 7 -15 15
-15 9 0 15 9 15 25 0 17 -5 25 -17 25 -15 0 -16 -2 -3 -10z"/>
<path d="M125 591 c-3 -5 -2 -12 3 -15 5 -3 9 1 9 9 0 17 -3 19 -12 6z"/>
<path d="M1795 580 c4 -6 11 -8 16 -5 14 9 11 15 -7 15 -8 0 -12 -5 -9 -10z"/>
<path d="M1763 548 c-3 -55 17 -89 31 -52 3 8 2 13 -3 10 -5 -3 -12 1 -15 10
-3 8 -2 12 4 9 14 -9 12 8 -3 29 -12 16 -13 16 -14 -6z"/>
<path d="M2934 561 c6 -8 0 -10 -18 -5 -19 4 -26 2 -26 -8 0 -10 10 -15 30
-14 30 1 40 19 18 32 -7 4 -8 3 -4 -5z"/>
<path d="M1257 528 c5 -10 81 -8 113 2 17 6 2 8 -46 7 -40 -1 -70 -5 -67 -9z"/>
<path d="M175 511 c-6 -11 13 -26 22 -17 4 3 0 6 -8 6 -11 0 -11 2 1 10 9 6
10 10 3 10 -6 0 -14 -4 -18 -9z"/>
<path d="M585 501 c-3 -5 -1 -12 5 -16 5 -3 10 1 10 9 0 18 -6 21 -15 7z"/>
<path d="M2260 492 c0 -5 7 -9 15 -9 8 0 15 4 15 9 0 4 -7 8 -15 8 -8 0 -15
-4 -15 -8z"/>
<path d="M1020 460 c0 -5 5 -10 10 -10 6 0 10 5 10 10 0 6 -4 10 -10 10 -5 0
-10 -4 -10 -10z"/>
<path d="M1752 430 c0 -14 2 -19 5 -12 2 6 2 18 0 25 -3 6 -5 1 -5 -13z"/>
<path d="M1777 444 c-10 -11 -9 -54 2 -54 5 0 12 6 14 13 3 6 6 2 6 -11 1 -34
21 -16 21 20 0 22 -4 29 -14 25 -8 -3 -16 -1 -18 4 -2 6 -7 7 -11 3z"/>
<path d="M1288 433 c7 -3 16 -2 19 1 4 3 -2 6 -13 5 -11 0 -14 -3 -6 -6z"/>
<path d="M1208 423 c6 -2 18 -2 25 0 6 3 1 5 -13 5 -14 0 -19 -2 -12 -5z"/>
<path d="M1482 405 c0 -16 2 -22 5 -12 2 9 2 23 0 30 -3 6 -5 -1 -5 -18z"/>
<path d="M1501 408 c0 -13 4 -32 9 -43 l9 -20 0 20 c1 11 4 30 7 43 5 16 2 22
-10 22 -10 0 -16 -8 -15 -22z"/>
<path d="M888 383 c6 -2 18 -2 25 0 6 3 1 5 -13 5 -14 0 -19 -2 -12 -5z"/>
<path d="M800 250 c0 -5 5 -10 10 -10 6 0 10 5 10 10 0 6 -4 10 -10 10 -5 0
-10 -4 -10 -10z"/>
<path d="M2300 215 c0 -8 5 -15 10 -15 6 0 10 7 10 15 0 8 -4 15 -10 15 -5 0
-10 -7 -10 -15z"/>
<path d="M2170 195 c0 -17 2 -18 24 -9 23 9 20 24 -4 24 -11 0 -20 -7 -20 -15z"/>
<path d="M1997 159 c7 -9 11 -18 9 -20 -8 -8 59 -4 72 4 23 15 2 26 -28 15
-23 -8 -35 -7 -48 3 -15 12 -16 12 -5 -2z m78 -9 c-3 -5 -14 -10 -23 -9 -14 0
-13 2 3 9 27 11 27 11 20 0z"/>
<path d="M2714 155 c8 -8 18 -15 22 -15 3 0 1 7 -6 15 -7 8 -17 15 -22 15 -5
0 -3 -7 6 -15z"/>
<path d="M1630 135 c0 -8 5 -15 10 -15 6 0 10 7 10 15 0 8 -4 15 -10 15 -5 0
-10 -7 -10 -15z"/>
<path d="M2331 131 c0 -13 7 -30 17 -37 26 -20 40 -16 15 4 -11 9 -23 26 -26
37 -4 17 -5 17 -6 -4z"/>
<path d="M2786 81 c-3 -5 -3 -22 0 -39 5 -26 11 -30 51 -36 25 -3 68 -6 94 -6
39 0 47 3 43 15 -4 8 -12 15 -19 15 -7 0 -15 9 -18 20 -3 13 -14 20 -28 20
-22 0 -22 -1 -5 -13 18 -13 18 -14 1 -20 -12 -5 -18 -1 -22 13 -4 16 -9 18
-24 9 -22 -11 -63 -3 -54 11 3 5 1 11 -4 14 -5 4 -12 2 -15 -3z"/>
<path d="M1630 59 c0 -5 5 -7 10 -4 6 3 10 8 10 11 0 2 -4 4 -10 4 -5 0 -10
-5 -10 -11z"/>
<path d="M2202 50 c0 -14 2 -19 5 -12 2 6 2 18 0 25 -3 6 -5 1 -5 -13z"/>
<path d="M2331 28 c-1 -16 4 -28 9 -28 12 0 12 8 0 35 -8 18 -9 17 -9 -7z"/>
<path d="M3102 20 c0 -14 2 -19 5 -12 2 6 2 18 0 25 -3 6 -5 1 -5 -13z"/>
<path d="M210 15 c0 -8 5 -15 10 -15 6 0 10 7 10 15 0 8 -4 15 -10 15 -5 0
-10 -7 -10 -15z"/>
</g>
</svg>
